Coordinates
version=1
nRows=11
nColumns=63
inDegrees=yes

Units are S.I. units (second, meters, Newtons, ...)
If the header above contains a line with 'inDegrees', this indicates whether rotational values are in degrees (yes) or radians (no).

endheader
time	pelvis_tilt	pelvis_list	pelvis_rotation	pelvis_tx	pelvis_ty	pelvis_tz	hip_flexion_r	hip_adduction_r	hip_rotation_r	knee_angle_r	knee_angle_r_beta	ankle_angle_r	subtalar_angle_r	mtp_angle_r	hip_flexion_l	hip_adduction_l	hip_rotation_l	knee_angle_l	knee_angle_l_beta	ankle_angle_l	subtalar_angle_l	mtp_angle_l	L5_S1_Flex_Ext	L5_S1_Lat_Bending	L5_S1_axial_rotation	L4_L5_Flex_Ext	L4_L5_Lat_Bending	L4_L5_axial_rotation	L3_L4_Flex_Ext	L3_L4_Lat_Bending	L3_L4_axial_rotation	L2_L3_Flex_Ext	L2_L3_Lat_Bending	L2_L3_axial_rotation	L1_L2_Flex_Ext	L1_L2_Lat_Bending	L1_L2_axial_rotation	L1_T12_Flex_Ext	L1_T12_Lat_Bending	L1_T12_axial_rotation	Abs_r3	Abs_r2	Abs_r1	Abs_t1	Abs_t2	neck_flexion	neck_bending	neck_rotation	arm_flex_r	arm_add_r	arm_rot_r	elbow_flex_r	pro_sup_r	wrist_flex_r	wrist_dev_r	arm_flex_l	arm_add_l	arm_rot_l	elbow_flex_l	pro_sup_l	wrist_flex_l	wrist_dev_l
      4.95000000	      2.23065858	     -3.25143449	    104.38319162	      0.39814141	      0.65686296	      1.07502985	     14.02777823	     -1.07949859	    -12.83391241	     19.58725033	      0.34186201	     32.90565610	     -6.72303194	      0.00000000	      9.48562237	     -0.27850804	      3.66112566	      9.77099795	      0.17053609	     32.94995032	      7.87633745	      0.00000000	     -0.11055037	      0.52759135	     -1.59760577	     -0.20530310	      0.70169649	     -1.69745613	     -0.18162321	      1.28278560	     -1.69745613	     -0.12634802	      1.28278560	     -1.39790505	     -0.10265708	      1.07586427	     -1.29805469	     -0.06316848	      0.81723899	     -1.19820433	     -0.78965027	      5.96821882	     -8.88540403	      0.00000000	      0.00000000	      8.60288220	      2.68793437	      5.00452608	     19.29107488	    -20.98376016	     22.88517624	     83.67470218	     87.51342220	      0.09783422	     11.31966562	     29.53697702	     -7.06936708	     36.89795506	     77.45112033	     89.26143294	     12.72144942	     23.29733178
      4.96666667	      2.77447209	     -2.65826978	    105.47904825	      0.39501820	      0.65855093	      1.07443344	     13.08582027	     -0.66407878	    -14.01193757	     18.96625608	      0.33102362	     32.42491757	     -6.75247013	      0.00000000	      9.23754540	     -0.73198969	      4.70084715	      9.93065871	      0.17332269	     33.30353906	      8.40178409	      0.00000000	     -0.12555246	      0.60935092	     -2.19112289	     -0.23316346	      0.81043673	     -2.32806807	     -0.20627013	      1.48157584	     -2.32806807	     -0.14349390	      1.48157584	     -1.91723253	     -0.11658801	      1.24258841	     -1.78028735	     -0.07174067	      0.94388458	     -1.64334217	     -0.89680863	      6.89309953	    -12.18636816	      0.00000000	      0.00000000	      7.95064863	      2.27595926	      7.31398961	     24.58399332	    -20.81769019	     25.52249568	     81.76963267	     88.28130237	     -1.00588394	      7.21044911	     28.70614036	     -8.17305395	     33.13906039	     80.63334437	     89.01995176	     10.51314039	     21.81631195
      4.98333333	      3.38876611	     -2.20927931	    106.43247648	      0.39211271	      0.66006115	      1.07373171	     12.43480376	     -0.22236903	    -15.37632787	     18.52041989	      0.32324231	     32.06916853	     -6.45313557	      0.00000000	      9.20730845	     -1.24044925	      5.71889502	     10.19082300	      0.17786341	     33.67165441	      8.78756209	      0.00000000	     -0.12392194	      0.70486515	     -2.79321959	     -0.23013543	      0.93747065	     -2.96779581	     -0.20359135	      1.71380912	     -2.96779581	     -0.14163038	      1.71380912	     -2.44406714	     -0.11507391	      1.43736101	     -2.26949092	     -0.07080899	      1.09183612	     -2.09491469	     -0.88516199	      7.97357553	    -15.53504939	      0.00000000	      0.00000000	      7.43188795	      2.24943423	     10.43957443	     29.31446469	    -20.33373190	     28.56984967	     80.48184277	     88.58986424	     -1.22186090	      5.18006456	     27.53649676	     -9.15445681	     28.73831784	     84.28633411	     88.48756876	      8.50769764	     21.37258555
      5.00000000	      3.83095139	     -1.78615385	    107.19912168	      0.38980459	      0.66165567	      1.07264178	     11.80837259	      0.13225794	    -16.40349244	     18.11534156	      0.31617236	     31.75145000	     -6.22903053	      0.00000000	      9.12295331	     -1.62349637	      6.58668715	     10.45164243	      0.18241557	     34.00081751	      9.08048610	      0.00000000	     -0.12233280	      0.77258469	     -3.24915998	     -0.22718424	      1.02753764	     -3.45223248	     -0.20098055	      1.87846241	     -3.45223248	     -0.13981415	      1.87846241	     -2.84301498	     -0.11359824	      1.57545470	     -2.63994248	     -0.06990096	      1.19673368	     -2.43686999	     -0.87381094	      8.73963251	    -18.07085306	      0.00000000	      0.00000000	      7.21331912	      1.98909162	     12.41159468	     32.47364488	    -19.86606092	     30.39848534	     80.44777542	     88.82231076	     -0.19871477	      4.33578407	     26.53099904	     -9.55653369	     24.62600299	     87.56132013	     87.37269680	      6.75378674	     20.79332118
      5.01666667	      3.88229852	     -1.40602572	    107.34051917	      0.38913999	      0.66327289	      1.07084389	     11.29445472	      0.26785315	    -16.55874773	     17.99024199	      0.31398896	     31.60750283	     -6.25273875	      0.00000000	      8.81169778	     -1.76188025	      6.80350178	     10.62123273	      0.18537548	     34.27921869	      9.18773674	      0.00000000	     -0.11766880	      0.76423867	     -3.31080649	     -0.21852272	      1.01643743	     -3.51773189	     -0.19331807	      1.85816989	     -3.51773189	     -0.13448367	      1.85816989	     -2.89695568	     -0.10926724	      1.55843549	     -2.69003027	     -0.06723595	      1.18380569	     -2.48310486	     -0.84049645	      8.64522064	    -18.41371243	      0.00000000	      0.00000000	      7.27395064	      1.99548340	     12.05565456	     33.14981570	    -19.97279544	     29.87955262	     82.28503281	     88.97648829	      0.15024154	      3.89941981	     26.39745120	     -9.35503488	     22.14859972	     90.04724952	     86.18837694	      6.15753478	     19.87988605
      5.03333333	      4.21259057	     -1.05991053	    108.40871230	      0.38750990	      0.66481620	      1.06991677	     10.74420101	      0.57541287	    -17.39861894	     17.54382512	      0.30619751	     31.13544418	     -6.64522004	      0.00000000	      8.87916432	     -2.06880722	      7.53184037	     11.03133177	      0.19253306	     34.43720684	      9.83278236	      0.00000000	     -0.09535714	      0.80372350	     -3.56779073	     -0.17708774	      1.06895225	     -3.79077765	     -0.15666224	      1.95417331	     -3.79077765	     -0.10898367	      1.95417331	     -3.12181689	     -0.08854864	      1.63895296	     -2.89882997	     -0.05448707	      1.24496770	     -2.67584305	     -0.68112650	      9.09188096	    -19.84298170	      0.00000000	      0.00000000	      7.57460489	      0.95497459	     12.33153658	     33.76871326	    -19.79086531	     29.29937373	     84.13482213	     89.06577677	      1.49766746	      4.26481516	     25.59187299	     -9.03955398	     19.69154253	     92.78468290	     83.31321542	      3.74337215	     17.82523026
      5.05000000	      4.07841711	     -0.67034097	    108.86231690	      0.38777797	      0.66629441	      1.06854080	     10.18661030	      0.58246167	    -17.66230400	     17.38528469	      0.30343046	     31.03483778	     -6.85803289	      0.00000000	      8.61780757	     -2.10057411	      7.60439634	     11.36988461	      0.19844192	     34.49713158	     10.27364257	      0.00000000	     -0.08354089	      0.75096670	     -3.37838492	     -0.15514378	      0.99878571	     -3.58953398	     -0.13724932	      1.82590043	     -3.58953398	     -0.09547888	      1.82590043	     -2.95608681	     -0.07757607	      1.53137129	     -2.74493775	     -0.04773526	      1.16324742	     -2.53378869	     -0.59672419	      8.49508550	    -18.78956342	      0.00000000	      0.00000000	      7.96783591	      0.60331481	     10.30396199	     31.95706098	    -20.14661846	     26.14083374	     87.54989229	     89.07642987	      1.16337374	      4.71728235	     25.77292474	     -8.14542227	     19.34892316	     94.61944701	     81.68685812	      2.26876811	     15.72125796
      5.06666667	      3.82203791	     -0.25418538	    109.07787644	      0.38861965	      0.66763430	      1.06722647	      9.62756639	      0.53055175	    -17.67155665	     17.30861830	      0.30209238	     31.04395260	     -7.03718627	      0.00000000	      8.23329217	     -2.08049447	      7.38337308	     11.67614772	      0.20378722	     34.52637996	     10.67468168	      0.00000000	     -0.07474160	      0.67971100	     -3.00055301	     -0.13880262	      0.90401563	     -3.18808758	     -0.12279297	      1.65264933	     -3.18808758	     -0.08542217	      1.65264933	     -2.62548389	     -0.06940505	      1.38606668	     -2.43794932	     -0.04270735	      1.05287234	     -2.25041476	     -0.53387177	      7.68902680	    -16.68817570	      0.00000000	      0.00000000	      8.26288974	      0.23644260	      7.63391530	     29.20532306	    -20.37465448	     21.90691635	     91.28870466	     89.00390973	      0.15974040	      5.50863886	     26.16279287	     -6.78223767	     19.71240186	     95.98644709	     80.80004065	      1.54040218	     14.19258619
      5.08333333	      3.54131923	      0.13837108	    109.12751115	      0.38983479	      0.66872163	      1.06594217	      9.11436372	      0.47542175	    -17.61307464	     17.27661519	      0.30153382	     31.19840248	     -7.03022793	      0.00000000	      7.80952738	     -2.06855326	      7.05810537	     11.91606005	      0.20797448	     34.58977741	     11.06653972	      0.00000000	     -0.06186627	      0.60625062	     -2.52391835	     -0.11489186	      0.80631332	     -2.68166324	     -0.10164010	      1.47403775	     -2.68166324	     -0.07070696	      1.47403775	     -2.20842855	     -0.05744902	      1.23626626	     -2.05068366	     -0.03535039	      0.93908220	     -1.89293876	     -0.44190460	      6.85802822	    -14.03727666	      0.00000000	      0.00000000	      8.44839121	     -0.22029734	      4.90881446	     25.98971679	    -20.12627968	     17.22190425	     94.97561458	     88.81316284	     -1.47958106	      6.66423502	     26.66364268	     -5.26150047	     20.51918050	     97.09091481	     80.47199119	      1.12700586	     13.79820959
      5.10000000	      3.20871983	      0.56217316	    108.87737818	      0.39113845	      0.66960672	      1.06491087	      8.65138851	      0.35740035	    -17.42000927	     17.39724962	      0.30363929	     31.46890332	     -6.73021483	      0.00000000	      7.30646819	     -2.02647737	      6.41912770	     12.14526206	      0.21197481	     34.77363980	     11.48726265	      0.00000000	     -0.06769326	      0.53338935	     -1.99237759	     -0.12571315	      0.70940784	     -2.11690118	     -0.11121326	      1.29688287	     -2.11690118	     -0.07736663	      1.29688287	     -1.74333039	     -0.06285996	      1.08768756	     -1.61880679	     -0.03867993	      0.82622010	     -1.49428319	     -0.48352619	      6.03380701	    -11.08100642	      0.00000000	      0.00000000	      8.78518765	     -1.04698708	      1.95553591	     22.98985180	    -19.53276194	     12.86962902	     98.25177536	     88.51504285	     -3.14545254	      7.96700037	     27.25984229	     -3.75686811	     21.56560377	     98.04343447	     80.24162388	      0.67151128	     14.42083078
      5.11666667	      2.99817492	      0.94367880	    108.57845368	      0.39223255	      0.67024559	      1.06383719	      8.25152801	      0.32778131	    -17.27942171	     17.48513746	      0.30517322	     31.78267123	     -6.19292083	      0.00000000	      6.84053274	     -2.08529720	      5.76216960	     12.30530829	      0.21476815	     35.06067753	     11.95899440	      0.00000000	     -0.06913218	      0.48318810	     -1.55807723	     -0.12838537	      0.64264017	     -1.65545705	     -0.11357726	      1.17482355	     -1.65545705	     -0.07901117	      1.17482355	     -1.36331757	     -0.06419614	      0.98531718	     -1.26593775	     -0.03950213	      0.74845837	     -1.16855792	     -0.49380426	      5.46592044	     -8.66555811	      0.00000000	      0.00000000	      9.12521199	     -2.15412999	     -0.19394330	     20.52755999	    -18.69123499	      9.77736114	    100.88599761	     88.19835120	     -4.35137341	      9.00730884	     27.55465581	     -2.55690829	     22.34377420	     99.16906879	     79.67822410	      0.16920550	     15.86314034
